<mxfile host="app.diagrams.net" agent="Mozilla/5.0 (Windows NT 10.0; Win64; x64) AppleWebKit/537.36 (KHTML, like Gecko) Chrome/134.0.0.0 Safari/537.36 Edg/134.0.0.0" version="26.1.0">
  <diagram name="Page-1" id="iYitJ2zhzJ3n7KglKDQZ">
    <mxGraphModel dx="1902" dy="922" grid="0" gridSize="10" guides="1" tooltips="1" connect="1" arrows="1" fold="1" page="1" pageScale="1" pageWidth="1200" pageHeight="1600" math="0" shadow="0">
      <root>
        <mxCell id="0" />
        <mxCell id="1" parent="0" />
        <mxCell id="4z-OkCTjVXIY_iC7y3pM-1" value="" style="shape=image;verticalLabelPosition=bottom;labelBackgroundColor=default;verticalAlign=top;aspect=fixed;imageAspect=0;image=data:image/png,iVBORw0KGgoAAAANSUhEUgAAA+QAAAPTCAYAAAA5IsMEAAAAAXNSR0IArs4c6QAAAARnQU1BAACxjwv8YQUAAAAJcEhZcwAADsMAAA7DAcdvqGQAAD//SURBVHhe7d0JmGR1fej9/5nuHoZ17B4UwV0EQdQoiEtEjQq+egVflzdRg3mjMcuYRGMS781cJVe9iWRyNXGLydxrMFF5EwzmMYJigmaMO4q4E0FAVtl0umkWGZjuPu/5naoehkVgZrrPD+p8Ps9z5tSpqu7qOnO6qr5n62q//farCwAAANCpqhkEOQAAAHRsxXAMAAAAdEiQAwAAQAJBDgAAAAkEOQAAACQQ5AAAAJBAkAMAAEACQQ4AAAAJBDkAAAAkEOQAAACQQJADAABAAkEOAAAACapmqAcX774VK1aUffbZp9zvfvcr97nPfcqqVavK+Ph4WVhYKDfddFO54YYbyvT0dLn88svLjTfe2F4PAAAA3GK7gryqqja8I8Sf97znlWc/+9nlsY99bNl3333LHnvsUW6++ebyk5/8pPzwhz8sX/va18opp5xSzj333HLNNdeU+fn54XfhjsRKjt12263ssssuZWJiop3XsSIj5mms1IgVHXW93etOAAAAuIfariBfuXJleehDH1re/va3l0MPPbRMTU218Tg2NtYGZIiInJubK5s3b27j/B3veEc59dRTy49+9KP2dm4vYjzm5Ute8pJy5JFHloMOOqjsvvvu7V4GZ511Vvn4xz9ePve5z7V7HgAAADAaxprhLYOLd+1hD3tYedWrXlWOPvrodiv5D37wg/KRj3ykvO997ysf/vCHy+mnn97upr7nnnuWBz/4wWWvvfZqh7ju+9///vC7sK1YyfGQhzykHHfcceWFL3xh+bmf+7my3377lcnJybJmzZryoAc9qDzykY8sq1evLt/73vfKli1bhl8JAADAvdl2BfmjH/3o8vrXv76N7diN+hOf+EQ54YQType+9KXyn//5n+WCCy4ol1xySbtrdYRlHFseYXnOOee0u7Dbbf32HvCAB5QXv/jF5Vd/9VfbFR4XX3xx+bd/+7fymc98pmzatKmN9f333789JOCqq65qb489EAAAALh3u9tBHrulR2S/5jWvaXdTn52dbYM8hsXjm2N85ZVXluuuu649rjzuE7tdn3nmmeU73/nO1q278b3ue9/7lgMOOKA86lGPanfRjsuxNTgCPnZ/j+C/7THTsWt3bJmPQD344IO3fl2sIIhdvuP7xm7d235dfL/DDjusPdY97h/HwMft8biLKw3i544hHjeO444Ijq3ScZ8Yx276e++9d3t73O+2KxZu+xixu/lPf/rT9r53Jp7PYx7zmPL7v//75RGPeET7s//Lv/xLee9739vu5n/ppZe2jx/PL/Y6iOPLN27c2M4bAAAA7v2iXu9yaMK1fulLX1ovLCw0PVvXTTzW73jHO+omXusmFtvbmyCum2it99hjj/qQQw6pn/rUp9ZPe9rT6oc//OF1E/Ht92kitN5vv/3qY489tj7ppJPqCy+8sL7++uvrJuLrCy64oP7oRz9a/9qv/Vq9zz771E08b338uHz/+9+/fsUrXlGfeOKJ9bnnnltfc8017dfG9zjllFPq1772tXUTr+1jxc8RX/eUpzyl/sIXvlBv3ry5/bn/6q/+qn7hC19Yf+ITn2gfs4nfuonp9udqQrp+whOeUB9//PH1l770pfrqq69uv+7KK6+sTz/99Pp1r3td3QTyrb7/HT3GBz/4wfpxj3vc1tt/1rDrrrvWL3vZy+qbb765na9f/vKX61/6pV+61X3iZ7nooovqLVu21D/4wQ/a+R0/67b3MRgMBoPBYDAYDAbDvW+421vI42RtTVi3Jx6LLbuxlTy2HD/+8Y/f+qfPYlfq2CocW3BnZmbKFVdc0Z7MbfEs6/F1sTX5TW96U/nN3/zNdqtyTMeW3ziWOo43j63fT3ziE9vv14Rou4U9tnzHFve3ve1t5ZWvfGU5/PDD2y3WcZ/4uth6HD9LfL/4eb761a+2W+njZ46t7kcddVS7a3hsHY+fO7ZiP+tZzypNELcnTfvWt75VmrAvT3rSk8o73/nO8pznPKfdSh67icfXxP0e+MAHtj9XXB/Hcsdziu8fbvsY3/72t8sZZ5zR7i1wZ+5///uXJubLc5/73Hbr+1e+8pXShH258MILh/co7c8aW8nj8WMPg0996lPtruyOJQcAALh3WzEc36WIzziG+Ytf/GL7p7giIGP38ac+9all7dq1bSx/4AMfKB/60IfaqP2N3/iNdpfwiO0I9bqu293Bjz322PKMZzyj3Q07Yvvv//7vy6tf/eryW7/1W+Wf//mf25iP+H7pS19aDjzwwPbrI0Z/+Zd/ufzCL/xCG78//vGPy0knndTG+ctf/vLy/ve/vz12PQI3Yv3Xf/3X20C/I7Fr+GLwx3MIMY7Heu1rX9vGb6w4iPD93d/93fbnfetb39qewC5OrPbzP//z5bd/+7fblQCLX7+j4nvEidsWv8+1117b7uq+rW2vi9iPv/8e8wQAAIB7t+06qVts5Y4tz7F1OuI0thxHZMd0bB2Ok5LFFu7FISI3ojO2PscW87jfH/3RH7Unh4tAjxO9vetd7yqf//zn2xO/RbhH5EdMx9fFlus4iVlslX7d617Xfr9YMRBnc//bv/3b8u///u/t2dtjK3xsaY/jyWNrfRyfHlvJI9LjjOXbbr2OlQnxd9I/9rGPlU9/+tPtnxOLP88Wx3/HVvt43DjmPc4eH8dzx7HvsaU+vmd8rxjiuf/Hf/xH+5wWT7AW4Rw/b2zhju8Zzyee951Z3OoeW+ZDbCGPLfaxZ8Gi2EIeW/1j3safkvvsZz/bbkH3J9AAAADu3bYryGNLbQRybMWOXdMjOCPQYzpiPXYtj13CI2ojXOOEZRGdsSX8sssua2M7wjrCPP4UWpxJ/IMf/GD7vSI2IzJjiOiOLdKx63dsDY8Qj63wsXt6fJ9/+qd/aoM6vi6COL5XBHnEazxenOAtIj/O+h6PtW2QR8CffPLJZcOGDeW0004r5557bruV+pnPfGZ7v9haHfeJ7xkrG2I3/YjxGMeKgtgKH8/z61//evuzxM+7GOPxmBHqdyfGQ/xMsZt9bNUPsZv7N7/5zVvt6h7PKe4Tjx/zOYL8/PPPv1vfHwAAgHuuu73LeohQjmOnY7f0+PNnf/AHf9Dunh5bk2OrcIRsxGQE6uKZyB/3uMeVZz/72e2W4NjdfHFX8auvvrrd8ryt2PL7d3/3d+UXf/EX2yEeJ75X7MK++HUR6rHle3HL9KLYSn7eeee1lxePOY9Iv63Y+v3Rj360XbEQKwHi+8T9Io4XxTHdf/EXf1FOOeWUrcPv/d7vtWd2DxH2scU6zqa+s2JPge0R/wfb+zUAAADc82xXkG8rttB+97vfbWP8z/7sz9pjwI8++uj2mO6//uu/brdsL0Z5xO4hhxzSnrRt8XjpiOHbHi99RyLEtw3f2CJ/R18XW8u33Y07ttLHLvW3FX+KLX62bd32Me5KHGO+eMK3nRErA2IX+kWxd0GsTNhWPMbidRHiMd8W5ysAAAD3Xnc7yCNAY/fpiO4YnvCEJ7RbliOCY6t5HIcdu3l/4xvfaHcnP/HEE7eGc+xqHkPscr24dTdCMwL0rkSwRoQuiniO73VbcaKz2MV8UXzdbbeih4jZ214fZyzf9jH+8R//sV3B8IIXvOAOhzjhXOxqH893ZyzOu0Xx89/2hG2xomDxutg6HisTto14AAAA7p3udpBHGMaJz17zmte0Q5zhPI4R31bEdmw5j2Or4zjnxfCN2I0/1RVnaY/r4n5xnHfsVr6tOIN4HMe9bt26doizqsdW7jh5WsRoiLOzx/1iK/Wi2Ooex3bHbuQhvn+Ea2wNv624bXGlwKLYLT6Oc18Uu9PHCedOPfXUrUMcH3722We3u7rHLvOxa35sld8Z8bxiniw+tzhWPU4Yt63F6+I+sYIjTvgWKzYAAAC4d7vbQR5bluMM5nHys+c973nlxS9+cTnyyCPbPxMWW89jt+oYYlfxOFY8tqbHVvAIyYjXOHna4t8lj0CPqI6zrcefIYvojuA/9NBDy6te9apy3HHHlTe+8Y1bT3YW0RrfI36GOON6HJe++CfRYmt5nPAszkQe3yvuE0F96aWX3mrr852JeI/j2WPLc8T6ox71qPZ48Xi+8RwW/9xZHNf+K7/yK+1zjxUKi7uSx54C8effnv/855djjjmm/Vli9/y7EisCYuVF/Lzxc8cKhXgO8f1i74E4MV48zzgZXmxNj2PsY08Ef4McAADg3q+qqjV36wxhVbWiPP3pTyvvfe9flgMOeEATwuNNZJ/T/r3uj3/8421Yxpbq2IIdW7kjrNes2btcd92W5mv+T3nPe97XRucf//Gbykte8tzmfvs2EXxh+/fEYxf3COvYFTyOQZ+aWlNmZm4sa9e+vpx22r82j/eI8t/+2x82sfusJv53bR83tlr/wz/8Q7vF/SUveUkbyY95zGObx7ux+Zk+V9avf3t7lvYnP/nw8r/+15ubuD+0CfiV5c///D3lT//0L251vPmKFWPlmc98Rvmbv3lPeehD79uE+U3tidxit/vY0h+hHGeHj+geG1tVzj77h+XYY3+1XHxxnFxuy+0e48Mf/qfyl3/5183jf2/4CD/bz/3c48p//+//tfyX//L0suuuK9vHjRPbxQnqYuXH7/zO75SDD35U83NcUj70oY828/J9zXO8dvjVAADAzqrr2GM19q4d7LkKXanGx0++m0Feyt57795E4gPL//yfj2iCelVz7Vy7tXvxz56F2KI8OJ579xIbct///subcL6ofOtbP27CtzTBu6Ycf/xB5cgj9y6rVtXtbtjx9RHzcQx1DDfcUDdf96PygQ+c14TpNWX33VeWxz9+n/Kudz2qifPdmsdYaL8mvja2aMfXxFb2m29eUb73vevLG97w/Wb843L99Tc1sTzVxPljyxOeMNX8XCvK299+bvP4329uu+U48nhu++23RxP8Dyv/4388vKxZM948r8H3j+Bf3PI/NrayfPOb1zff48Ly6U9f1Ny+pXn8crvHOPHEi5uf9bwmyO96C/1ee+1SDj108Nz233+35vsNTk4XjxvzMfY+uO66qvzrv15djjvu++WKK2ab27xQAADA0pluPmOva8Yzg0noSDUxsfFuBXmYmKjK5OREeeIT9ypPf/p9yuMet2cT2KvK1NREE8QrmgCvm3ica6Lx5jaMv/zl2fLVr15bLrzwxiaA59vwXblyRTn88L2aIJ9qv8eBB+5WVq8ea4I+dh2/uXz/+z8tn//8TDnttE3looviTOzx982rJojHmsddXZ7znKn28R/2sFXlPvcZb76uLjMzc+UHP7ixnHHGbPnsZ2fKWWdd10TtfFlYqMuTnrRXE8uPaGJ5z2GQX9IE+UXt7duKn+v+919Zjjpqqh0e+9g92um4/tpr58oFFwy+/3/8xzXtOB4zvn+47WOceOKV5d3vvqwJ8uva2+9MPLe99horRxxxn/L85+/dPrdY2bFq1YpmXs438+OGsnHjTDn99E3lm9+8rnmhiGPgh18MAADstLre1HTF2nYMXdquIA8R1RGLsaX6YQ/bteyzz8o2liNEIxZvvHG+bNo0Vy6+eHM599wbyuzsXBvq24r7Pvzhu5aDD969POABu5Tdd1/RxG38SbK5csklm9sov+yy+Bvht3zdYszH1xxwwK5tLO+++1j7dRH7l112UznvvJ+W88+/sd2CvBitD3zgLuXZz55qHycO+f7Sl2bLF784W26++fZbmVesqMree0+URz969/a5xYqG8fGqXSlw+eU3Nc/np+3KhQjlbd32Mb7znRvaaL/qqrt3NvR4brvtNtauBIj5et/7TrTPNR730ktvKmeffX3zuJvv8GcGAAB2jiAny3YHOQAAwCgR5GS522dZBwAAAJaOIAcAAIAEghwAAAASCHIAAABIIMgBAAAggSAHAACABIIcAAAAEghyAAAASCDIAQAAIIEgBwAAgASCHAAAABIIcgAAAEggyAEAACCBIAcAAIAEghwAAAASCHIAAABIIMgBAAAggSAHAACABIIcAAAAEghyAAAASCDIAQAAIIEgBwAAgASCHAAAABIIcgAAAEggyAEAACBBNTGxsR5e7sBCM8yWuo4xAPcUVRXrZ1c3Q1/W03o/Argnyno/qutNZX5+bTuGLnUc5DNlbm5dM54eTAJwDzFVxsfXN+PJweTI834EcM+U834kyMnSaZBb0AHumapqTRkb29CO+8D7EcA9U9b7kfcFsjiGHAAAABIIcgAAAEggyAEAACCBIAcAAIAEghwAAAASCHIAAABIIMgBAAAggSAHAACABIIcAAAAEghyAAAASCDIAQAAIIEgBwAAgASCHAAAABIIcgAAAEggyAEAACCBIAcAAIAEghwAAAASCHIAAABIIMgBAAAggSAHAACABIIcAAAAEghyAAAASCDIAQAAIIEgBwAAgASCHAAAABIIcgAAAEggyAEAACBBNTGxsR5eXnZ1vanMz69tx92K9Q6rS1VZ/zCK6nqh+Xe2GWLcJcsVSy9rea6qNWVsbEM77gPvR4wS74Msh769H+W9L9B3PQnyyTI+vr4ZTw0mGTHTZW5uXTOeGUx2xnLFcshZngV5V7xusBy8D7Ic+vV+lPe+QN/1Isj79kGzbyxXjBLLczfMZ0aJ5Znl0LflKuv5gn2MAAAAIIEgBwAAgASCHAAAABIIcgAAAEggyAEAACCBIAcAAIAEghwAAAASCPI7sWrVzWXffTe1Q1wGAACApSLI78QRR3y3nHHG2naIywAAALBUBPkdeOMbP1w+9rE3lbe+9YStW8jjclwXtwEAAMDOEuR34PDDzynPf/5X2vGiO7oOAAAAdpQg30YcJ37kkWeV+91vZnjN7cVtcR/HlAMAALAzBPk2JievKyecsP5Ot4LHbXGfuC8AAADsKEEOAAAACQT5NmZm9iyvfvW6cuaZBw2vub24Le4T9wUAAIAdJci3sXnzyvKZzxxWrr56cnjN7cVtcZ+4LwAAAOwoQX4HYiv4Jz/5lFttKb+j6wAAAGBHCfI7cPzxv1Je9KK3lTe/+dXliivWtENcjuviNgAAANhZgvxOfPGLjylPfvKGdojLAAAAsFQE+Z2I48QXt5A7ZhwAAIClJMgBAAAggSAHAACABIIcAAAAEghyAAAASCDIAQAAIIEgBwAAgASCHAAAABIIcgAAAEggyAEAACCBIAcAAIAEghwAAAASCHIAAABIIMgBAAAggSAHAACABIIcAAAAEghyAAAASCDIAQAAIIEgBwAAgASCHAAAABIIcgAAAEggyAEAACCBIAcAAIAEghwAAAASCHIAAABIIMgBAAAggSAHAACABIIcAAAAEghyAAAASCDIAQAAIIEgBwAAgASCHAAAABIIcgAAAEggyAEAACCBIAcAAIAEghwAAAASCHIAAABIIMgBAAAggSAHAACABIIcAAAAEghyAAAASCDIAQAAIIEgBwAAgASCHAAAABIIcgAAAEggyAEAACCBIAcAAIAEghwAAAASCHIAAABIIMgBAAAggSAHAACABIIcAAAAEghyAAAASCDIAQAAIIEgBwAAgASCHAAAABIIcgAAAEggyAEAACCBIAcAAIAEghwAAAASCHIAAABIIMgBAAAggSAHAACABIIcAAAAEghyAAAASCDIAQAAIIEgBwAAgASCHAAAABJUExMb6+HlZVfXm8r8/Np23K3JMj6+vhlPDSYZMdNlbm5dM54ZTHbGcsVysDx3w3xmlFieWQ45y1VVrSljYxvacZfyOoW+60mQx44Aq5tfbDsEjKK6Xmj+nW2GGHfJcsXSszx3w3xmlFieWQ5Zy5Ugp296EuQAAMA9nSCnb6zSBAAAgASCHAAAABIIcgAAAEggyAEAACCBIAcAAIAEghwAAAASCHIAAABIIMgBAAAggSAHAACABIIcAAAAEghyAAAASCDIAQAAIIEgBwAAgASCHAAAABIIcgAAAEggyAEAACCBIAcAAIAEghwAAAASCHIAAABIIMgBAAAggSAHAACABIIcAAAAEghyAAAASCDIAQAAIIEgBwAAgASCHAAAABIIcgAAAEhQTUxsrIeXl11dbyrz82vbcbdivcPqUlXWP4yiul5o/p1thhh3qV/LlfkMbC+vG90wn1kOWctVVa0pY2Mb2nGX8jqFvutJkE+W8fH1zXhqMMmImS5zc+ua8cxgsjN9W67MZ2B7ed3ohvnMcshZrgQ5fdOLIM/6xaYblqtumM/A9vK60Q3zmeXQt+Uq6/mCfYwAAAAggSAHAACABIIcAAAAEghyAAAASCDIAQAAIIEgBwAAgASCHAAAABIIcgAAAEggyAEAACCBIAcAAIAEghwAAAASCHIAAABIIMgBAAAggSAHAACABIIcAAAAEghyAAAASCDIAQAAIIEgBwAAgASCHAAAABIIcgAAAEggyAEAACCBIAcAAIAEghwAAAASCHIAAABIIMgBAAAggSAHAACABIIcAAAAEghyAAAASCDIAQAAIIEgBwAAgASCHAAAABIIcgAAAEggyAEAACCBIAcAAIAEghwAAAASCHIAAABIIMgBAAAggSBnq1Wrbi777rupHeIyAAAAy0eQs9URR3y3nHHG2naIywAAACwfQU554xs/XD72sTeVt771hK1byONyXBe3AQAAsPQEOeXww88pz3/+V9rxoju6DgAAgKUjyHssjhM/8sizyv3uNzO85vbitriPY8oBAACWliDvscnJ68oJJ6y/063gcVvcJ+4LAADA0hHkAAAAkECQ99jMzJ7l1a9eV84886DhNbcXt8V94r4AAAAsHUHeY5s3ryyf+cxh5eqrJ4fX3F7cFveJ+wIAALB0BDntVvBPfvIpt9pSfkfXAQAAsHQEOeX443+lvOhFbytvfvOryxVXrGmHuBzXxW0AAAAsPUHOVl/84mPKk5+8oR3iMgAAAMtHkLNVHCe+uIXcMeMAAADLS5ADAABAAkEOAAAACQQ5AAAAJBDkAAAAkECQAwAAQAJBDgAAAAkEOQAAACSoJiY21sPLy66uN5X5+bXtuFuTZXx8fTOeGkwyYqbL3Ny6ZjwzmOxIVa0pY2Mb2nEf+P0dbVUV62dXN0Nf1tMuNMNsszzHmOXj9bkLXp9ZHv36/c37PaLvehLkgw+agw+cjJrBB+rZZuj2g7UPfF3x+9uNqeEH68nB5MibGX7QnB5Msiy8PnfD6zPLoW+/v3m/R/RdT4Iclp4PfIwSyzOjxPIM915Zv79+j8hilSYAAAAkEOQAAACQQJADAABAAkEOAAAACQQ5AAAAJBDkAAAAkECQAwAAQAJBTm+tWlXKfvsNhrgMAADQJUFObz3taaWceeZgiMsAAABdEuT0zh//cSmnnFLKn/7pLVvI43JcF7cBAAB0QZDTO4cfXsoxx5TyxCcOr2jE5bgubgMAAOiCIKc34jjxo44qZZ99hlfcgbgt7uOYcgAAYLkJcnpjaqqUv//7W28Zv624Le4T9wUAAFhOghwAAAASCHJ6Y3q6lFe+spSvfW14xR2I2+I+cV8AAIDlJMjpjc2bS/n0p0u56qrhFXcgbov7xH0BAACWkyCnd+Lvjp966q23lMfluC5uAwAA6IIgp3f+5E9KecELSjnuuFIuv3wwxOW4Lm4DAADogiCnt77whcHfHY8hLgMAAHRJkNNbcZz44hZyx4wDAABdE+QAAACQQJADAABAAkEOAAAACQQ5AAAAJBDkAAAAkECQAwAAQAJBDgAAAAmqiYmN9fByB2bK3Ny6Zjw9mIQlUNcLzb+zzRDj7lTVmjI2tqEd94Pf3y5YnrtR15vK/PzadtytWA++upnP1ocvr6kyPr6+GU8OJkec5ZnRkvP7m/d7RN91HOSDD5qDD5ywVKaHoTgzmOxI/4Lc7283LM9dyPvgNTn8oDk1mGRZDAJxdTP0IxQtz4ySrN/fvN8j+q7jIIell/UC2r8gpwuW526Yz4wSyzPsvKzfI7CPEQAAACQQ5AAAAJBAkAMAAEACQQ4AAAAJBDkAAAAkEOQAAACQQJADAABAAkEOAAAACQQ5AAAAJBDkAAAAkECQAwAAQAJBDgAAAAkEOQAAACQQ5AAAAJBAkAMAAEACQQ4AAAAJBDkAAAAkEOQAAACQQJADAABAAkEOAAAACQQ5AAAAJBDkAAAAkECQAwAAQAJBDgAAAAkEOQAAACQQ5AAAAJBAkAMAAECCanz85Hp4GXZKVcX6ndXN0O16nrreVObn17bjLlXVmjI2tqEdw1KxPHfDfGaU9G95XmiG2eb5xhiWynSZm1vXjGcGk9CRqnkRFeQskakyPr6+GU8OJjvigzWjxPLcDfOZUdK/5XlmGE7Tg0lYAoMVPLPNYEUP3aqaQZCzJLLemH2wZpRYnrthPjNK+rY8Zz1fgOXgGHIAAABIIMgBAAAggSAHAACABIIcAAAAEghyAAAASCDIAQAAIIEgBwAAgASCHAAAABIIcgAAAEggyAEAACCBIAcAAIAEghwAAAASCHIAAABIIMgBAAAggSAHAACABIIcAAAAEghyAAAASCDIAQAAIIEgBwAAgASCHAAAABIIcgAAAEggyAEAACCBIAcAAIAEghwAAAASCHIAAABIIMgBAAAggSAHAACABFUz1IOLsHOqak0ZG9vQjrtU15vK/PzadtylrOebZ6EZZpv5HGOWz3SZm1vXjGcGk52ZLOPj65vx1GBy5JnPo6yqYnvD6mbox3aHvr0PZj1fgOUgyFkyfXtjznq+eWaGATM9mGRZDFZ4zDZD1ys+BgEzCJnRZz6Puqnhio/JweSI69v7YNbzBVgOgpwl07c35qznm8UHIODewutzN7Lms/cjYJRYRQ8AAAAJBDkAAAAkEOQAAACQQJADAABAAkEOAAAACQQ5AAAAJBDkAAAAkECQAwAAQAJBDgAAAAkEOQAAACQQ5AAAAJBAkAMAAEACQQ4AAAAJBDkAAAAkEOQAAACQQJADAABAAkEOAAAACQQ5AAAAJBDkAAAAkECQAwAAQAJBDgAAAAkEOQAAACQQ5AAAAJBAkAMAAEACQQ4AAAAJBDkAAAAkEOQAAACQoGqGenCR0RHrWVaXqup6fctUGR9f34wnB5MdqetNZX5+bTvuUlWtKWNjG9pxH2TN57zlGdhZdb3Q/DvbDDHujtfnbuTN55kyN7euGU8PJjuStTwDo02Qj6TJYRhPDSY7Mgim1c3QbTj174NIjqz5nLU8A0thehhOM4PJjnh97kbefB6E8SCQu5SzPAOjTZCPIB9EumE+d6Nv8xlGideNbpjP3ciaz8Bosw8oAAAAJBDkAAAAkECQAwAAQAJBDgAAAAkEOQAAACQQ5AAAAJBAkAMAAEACQQ4AAAAJBDkAAAAkEOQAAACQQJADAABAAkEOAAAACQQ5AAAAJBDkAAAAkECQAwAAQAJBDgAAAAkEOQAAACQQ5AAAAJBAkAMAAEACQQ4AAAAJBDkAAAAkEOQAAACQQJADAABAAkEOAAAACQQ5AAAAJBDkAAAAkECQAwAAQIKqGerBRUZFVa0pY2Mb2nG3FpphttR1jLs0Xebm1jXjmcFkR/Lmc4663lTm59e24y71b3mGpVdVsf59dTN0ux6+f68bObLmcymTZXx8fTOeGkx2pG/LMzDaBPkIyvsgMjMM4+nBZEcGwTTbDN2Gkw983ejb8gzLY2oYTpODyY7073UjR9Z8HgTx6mY+dxvGfVuegdEmyEdQ1geRvr1R+cDXDcsz7Ly+/R5lPd8sfXu96tvyDIy2rldpAgAAAA1BDgAAAAkEOQAAACQQ5AAAAJBAkAMAAEACQQ4AAAAJBDkAAAAkEOQAAACQQJADAABAAkEOAAAACQQ5AAAAJBDkAAAAkECQAwAAQAJBDgAAAAkEOQAAACQQ5AAAAJBAkAMAAEACQQ4AAAAJBDkAAAAkEOQAAACQQJADAABAAkEOAAAACQQ5AAAAJBDkAAAAkECQAwAAQAJBDgAAAAkEOQAAACSomqEeXGRUVNWaMja2oR13qa43lfn5te24HybL+Pj6Zjw1mBx502Vubl0znhlMdsTyDDuvf79HXp+7UFVVM5/Hh1NdiuX4vcNxd7wvAMtBkI8gAdOV2MFkdTOf+7GjSV0vNP/ONkOMu2N5hp3Xv98jr89dmJiYKPvvv3877tLc3Opy0UV/2I675H0BWA6CfAQJGEaJ5Rl2nt8jlkOE+EEHHdR5kG/Zsle54ILXt+MuWZ6B5eAYcgAAAEggyAEAACCBIAcAAIAEghwAAAASCHIAAABIIMgBAAAggSAHAACABIIcAAAAEghyAAAASCDIAQAAIIEgBwAAgASCHAAAABIIcgAAAEggyAEAACCBIAcAAIAEghwAAAASCHIAAABIIMgBAAAggSAHAACABIIcAAAAEghyAAAASCDIAQAAIIEgBwAAgASCHAAAABIIcgAAAEggyAEAACCBIAcAAIAEVTPUg4uMiqpaU8bGNrTjLtX1pjI/v7Yd90Osz1rdzOd+rNeq64Xm39lmiHF3LM+w8/r3e+T1uQsTExNl//33b8ddmptbXS666A/bcZe8LwDLQZCPIAHTlckyPr6+GU8NJkfedPPhZ10znhlMdsTyDDuvf79HXp+7UFVVM5/Hh1NdiuX4vcNxd7wvAMtBkI8gAdONrPmcJev/1/IMO69vv0dZzzdL316v+rY8A6PNMeQAAACQQJADAABAAkEOAAAACQQ5AAAAJBDkAAAAkECQAwAAQAJBDgAAAAkEOQAAACQQ5AAAAJBAkAMAAEACQQ4AAAAJBDkAAAAkEOQAAACQQJADAABAAkEOAAAACQQ5AAAAJBDkAAAAkECQAwAAQAJBDgAAAAkEOQAAACQQ5AAAAJBAkAMAAEACQQ4AAAAJBDkAAAAkEOQAAACQQJADAABAAkEOAAAACapmqAcXGRVVtaaMjW1ox92aKXNz65rx9GCyI3W90Pw72wwx7k7efM5R15vK/Pzadtylvi3PsDymyvj4+mY8OZjsSP9eN3JkzefBdp3VzXzuevtOv5ZnYLQJ8hGU90FkEMaDQO7S9DCcZgaTHfGBrxv9W55h6Q2CaXUzdBtO/XvdyJE1nyOIB2E8NZjsSN+WZ2C0CfIR5ININ8znbvRtPsMo8brRDfO5G1nzGRhtXe9jBAAAADQEOQAAACQQ5AAAAJBAkAMAAEACQQ4AAAAJBDkAAAAkEOQAAACQQJADAABAAkEOAAAACQQ5AAAAJBDkAAAAkECQAwAAQAJBDgAAAAkEOQAAACQQ5AAAAJBAkAMAAEACQQ4AAAAJBDkAAAAkEOQAAACQQJADAABAAkEOAAAACQQ5AAAAJBDkAAAAkECQAwAAQAJBDgAAAAkEOQAAACQQ5AAAAJCgaoZ6cJHRMVnGx9c346nBZEeqKtbvrG6Gbtfz1PWmMj+/th13qarWlLGxDe24D7Lmc9byDCyF6TI3t64ZzwwmO+L1uRt583mhGWab5xvjLuUsz8BoE+QjaRDGg0Du0tQwnCYHkx3p3weRHFnzOW95BnbWIJhmm6HbcPL63I28+TwzDOPpwWRHspZnYLQJcpZM1htz/z6I5MiazwDby+tzN7Lms/cjYJQIcpZM396Ys55vlu2dz7946NPLAffdbzh1a+f9+PJy8jc+P5wCWFpen7uRNZ+zni/AchDkLJm+vTFnPd8sdzWfD7jfA8ojtgnwdc95aTnswQcMp27trEvOK+tP/8hwqpTzm0A/7+ofDacAdo7X525kzees5wuwHAQ5S6Zvb8xZzzfLXc3nN/5fLytvfO7Lh1Pb5/h//cdy/L+dNJwC2Dlen7uRNZ+zni/AcnCWJAAAAEggyIGd9kfPeWl7zPiOiq89+dePK//7l3+vTO625/BaAAAYbYIc2CFxzHi7m3ozvOLYY8ujXvCsMvHkR5aJQ/cv1crx4b1ub+yBawb3Gw4rJvdov9fzDjm8/N+PfUr5r0f9P+00AACMOkEO7JA4gVscMx7DwUc8saxs4jqGicP2L2XiZwf5igfuvfW+MVSTuw9vKWWPXXYtr/uFF97q5HAAADCqBDmwQ6qxsVLtvqodyvg2LyVV1Vy3Syljt7lut10G97/N1vNq1co73aIOAACjSpADO2TFA6bKrr/89HYYe8AtZ9itdl1ZVr3wyXd4Xdx3/NEPGV47sPLph9zuOgAA6ANBDuyQcy68rrzp3d9rhzf++TfKv3/h8sENw63h2241v/aGubL+hHMH93/Ht8qHTj5/eMtgC3mxhRwAgB4S5MAOmbnmpvLlr1+9dbj08huGt9zeli3z5evf/snW+55z3jXDWwAAoL8EObDd4izohz34wOHU0nvCgw9oz7p+WDMGAIBRJciB7faLj39a+ePn/lKZWlnaYc1eE2W3XYe7ndd1qX96UylzC4PpRtUMkyvrwX33GC977tlcGKo331zKzXPDqYH4u+bxd8nXNWMAABhVghzYIYesrsu7D51rh795/UHl6KMe1F5f33hz2fwvZ5T5H21qp8PqiVLe+uj59r7v+38fUH7nVQcPb2la/PNnl7nvXTycAgCA/hDkwA5Z2bx63LKFfOWtt5DfcFMp87dsIV9RxRby4f33GC977dEU+lBsIa9vs4UcAAD6QJADO23u3MvKzWec2w5bzrqglC0/O7AXLvvJ1vvGUM/87JPBAQDAKBPkwE6bO/dHZUvEeAzfuOBOt3jPX7bplvs2w8LM9cNbAACgXwQ5AAAAJBDkAAAAkECQAwAAQAJBDgAAAAkEOQAAACQQ5MCSmq8XytXXXVNumtsyvOb24rYrZqfb4c7uBwAAo0yQA0tq0/XXlhf9n7eWL11w9vCa24vbnv7OP2yHO7sfAACMsrFmeMvgIuycqtqtrFhxdDvu1o2lrj/RjruU93yz3DKfr7xupszeeH05Yv9HD25qnPyNz5e3fPLD5WPf/lL55qXnl+9feUk57eyvlQt/csXt7vf2z5xcfnD1j8r1N93YjvfYZVU5ZN+HDO9Ryp+f/pHy7s/+S/m375/VbkUH2B59fn3uUt58znm+AMvBFnJgu53XRPTXLzlvODUQ133q7DPLxnO/1e6GflZze0zf0f3itkVxOa7bVnxNfO229wMAgFEjyIEdEseJRzQvDuf9+PLhLbd2d+4X1217n/gaAAAYdVUz1IOLsHOqak0ZG9vQjrtU15vK/PzadtylrOebJWs+D9Ybrm7ms/WHcG9T1wvNv7PNEOPueH3uRtZ8zns/Alh6gpwl07c35qznmyXvA9BkGR9f34ynBpPAvch0mZtb14xnBpMd8frcjaz5nPd+BLD0BDlLpm9vzFnPN8vOzOepVVPlHc96R5nadbKc9J8fKSd9/6ThLaW86effVA7f9wnt5ekbZ8obNr6hTG++5URufZvPMEq8Pnejb/M56/kCLAf7gALLbtX4LuXIhx5Zjt7/6HLg1AHDawcixuP6GOI+cV8AAOgDQQ4sqVWrSjnqqFKOOeaW4aijqvb6cODUgeXog48uxzzpmHbY5z73H9zQWAz3w+5/WNl7t72H1wIAwGiyyzpLpm+7rmU93yx3Np+npgYhHvbZp5RPfapqx1tdt09Z+MCppb6+ufKmPUq1+15lxUFj7U0L58+Xerp5GZpvJoavRqdd+Kly4vdOLJ+58DNl5qbKLutwL+X1uRt9m89ZzxdgOdhCDuy0v/zLqpx55mCIGN/7thu39/hJWfFrx5Sx1z65VE86odTX1GX+rLl2qO67otQPKWVuVRT5wLMe9Mzy3iPf0x53DgAAo0qQAzsttpDvt99giC3jY4ON37eomtje86pS9rqilJXXDf4C0k3DoXkVqsfr5j637KyzanxVWbPrmvYkcAAAMKoEObBDDjywlLe8ZTA88pHDK++Gav/PlepxHxlONTF+9UJZcdOKMna/8VI9qHlJum3MAwDAiBLkwA6JCH/zm6t2iDi/u6qHf75UR7ynVAd/sh3qG64s1bVNh+8yVqq9qlKtqcqVK64qX/3JV8uZV3x9+FUAADB6BDnQuepBZ5YVr3xRO1QP+np7UreFc+fbE7yteMRY+erEV8tbvvXW8rYvv234FQAAMHoEOQAAACQQ5MB2e/nLSznuuPiriXfta18r5QUvqG81/MmfDG9sVM8+viwc8edlbup7pWwpZeGc+bJw8UKpr/cXGQEAGG2CHNhuB44/oxy+8qXDqTt3n/uUcthhtx4e8YjhjY129/Un/H9l7BnvLNUR7yr1DdeWgyYeWV5xwLHlZQe/bHgvAAAYPYIc2G71D59e6m/dvViOE74tnvxtcYgt7Nsa2/ecMv7kD5cVT3tnKbtcXw5ec3B5xSGvKC971N2LfgAAuDcS5MCOmdullGv3HQxzq4ZX7qRqoVR7XFU2r7yibNpyRZm+cWZ4AwAAjB5BDuyQ+sIjyvx7z2iHuLwk9vhJWfFrx5TPPfqp5ffO/fnyho1vGN4AAACjR5ADO6Ta97tlxYt/ux3i8pKo5kvZ86qyeSK2kF9epjdPD28AAIDRI8iBHbPH1aU6+JPtUPa4anglAABwdwlyYPvd97z27OgAAMCOE+TAdtt84Enl+iceP5xaOgsLpczMlHLddXXZsmV4JQAAjChBDmy3004r5X9vqIdTS2d2tpTj3lSXv33/fDnnnKbOAQBghAlyYLtd+MNSvvXt4cQSuummUr7wxVK+891Spp3PDQCAESfIge12w09Lufba4cQSil3WN20afO+bbx5eCQAAI0qQAzvkxhtXlEsvWdkOcXlnXH99KZdfvqJc/qOJMj9fDa8FAIDRJsiBHXL55WPl5JN3b4crmss744ILqvKp0ybKJz6xWxP3ghwAgH4Q5MAOOe+8ufInf3pNO/zgvJ07JfpZZ9Xl3e+5qbzzXdeW6693MjcAAPpBkAM7ZMuWulxzzUI7vPnNdXnBCwbDK19Z3+UJ2b72tbL1/jG86111Of/8ulx77UJ7HDkAAPSBIAd2WgT2qacOhtNPX9EE+WS54fo1P3O45OI9t94/hu9+N45JH34zAADoCUEOLKnNN1blU5/apXzsY6t+5vCVr6wc3hsAAPqrqqo19fAy7KSpMj6+vhlPDiY7Utebyvz82nbcpeZ3p4yNbWjHfWA+A9vL60Y3+jefZ8rc3LpmfBfHR8F2qOs4Zm62GRw7R7eq8fGTBTlLoqpih4vVzdDtjhc+8HXDfAa2l9eNbvRvPg/CaRBQsFSmhyt6ZgaT0JFqYmKjIOdezQe+bpjPwPbyutEN8xl2XtbvETiGHAAAABIIcgAAAEggyAEAACCBIAcAAIAEghwAAAASCHIAAABIIMgBAAAggSAHAACABIIcAAAAEghyAAAASCDIAQAAIIEgBwAAgASCHAAAABIIcgAAAEggyAEAACCBIAcAAIAEghwAAAASCHIAAABIIMgBAAAggSAHAACABIIcAAAAEghyAAAASCDIAQAAIIEgBwAAgASCHAAAABIIcgAAAEggyAEAACBBNTGxsR5e7sBCM8yWuo4xLJXpMje3rhnPDCY7M1nGx9c346nB5Mgzn0dZVcX62dXN0Jf1tN6PuuF1oxvmM6Mj6/2orjeV+fm17Ri61HGQzwzfMKYHk7AEBh+oZ5uh6w/WgzeMwRvH6DOfR93U8IP15GBy5Hk/6oLXjW6Yz4yWnPcjQU6WToPcgg5wz1RVa8rY2IZ23AfejwDumbLej7wvkMUqTQAAAEggyAEAACCBIAcAAIAEghwAAAASCHIAAABIIMgBAAAggSAHAACABIIcAAAAEghyAAAASCDIAQAAIIEgBwAAgASCHAAAABIIcgAAAEggyAEAACCBIAcAAIAEghwAAAASCHIAAABIIMgBAAAggSAHAACABIIcAAAAEghyAAAASCDIAQAAIIEgBwAAgASCHAAAABIIcgAAAEggyAEAACCBIAcAAIAE1cTExnp4ednV9aYyP7+2HXcr1jusLlVl/cMoquuF5t/ZZohxlyxXLL2s5bmq1pSxsQ3tuA+8HzFKvA+yHPr2fpT3vkDf9STIJ8v4+PpmPDWYZMRMl7m5dc14ZjDZGcsVyyFneRbkXfG6wXLwPshy6Nf7Ud77An3XiyDv2wfNvrFcMUosz90wnxkllmeWQ9+Wq6znC/YxAgAAgASCHAAAABIIcgAAAEggyAEAACCBIAcAAIAEghwAAAASCHIAAABIIMgBAAAggSAHAACABIIcAAAAEghyAAAASCDIAQAAIIEgBwAAgASCHAAAABIIcgAAAEggyAEAACCBIAcAAIAEghwAAAASCHIAAABIIMgBAAAggSAHAACABIIcAAAAEghyAAAASCDIAQAAIIEgBwAAgASCHAAAABIIcgAAAEggyAEAACCBIAcAAIAEghwAAAASCHIAAABIIMgBAAAggSAHAACABIIcAAAAEghyAAAASCDIAQAAIIEgBwAAgASCHAAAABIIcgAAAEggyAEAACCBIAcAAIAEghwAAAASCHIAAABIIMgBAAAggSAHAACABIIcAAAAEghyAAAASCDIAQAAIIEgBwAAgASCHAAAABIIcgAAAEggyAEAACCBIAcAAIAEghwAAAASCHIAAABIIMgBAAAggSAHAACABNXExMZ6eHnZ1fWmMj+/th13a7KMj69vxlODyRFXVbGeZXUz9GN9i+WK0TJd5ubWNeOZwWRn+rY8m8+MkpzluarWlLGxDe24HxaaYbb5vBHjPujXcpX3eZK+60mQDwJ1EKp9MDX8wDc5mBxxlitGyeCD3mwzdP2Br1/Ls/nMKMlanvsX5DPDQJ0eTI64vi1XeZ8n6bueBHm/9O0N0nIFAN3zeYPlkLVc+f8li1X0AAAAkECQAwAAQAJBDgAAAAkEOQAAACQQ5AAAAJBAkAMAAEACQQ4AAAAJBDkAAAAkEOQAAACQQJADAABAAkEOAAAACQQ5AAAAJBDkAAAAkECQAwAAQAJBDgAAAAkEOQAAACQQ5AAAAJBAkAMAAEACQQ4AAAAJBDkAAAAkEOQAAACQQJADAABAAkEOAAAACQQ5AAAAJBDkAAAAkECQAwAAQAJBDgAAAAmqiYmN9fByB2bK3Ny6Zjw9mBxxdb3Q/DvbDDHuTlWtKWNjG9pxH9T1pjI/v7YddyvWZ61u5nM/1mtlLc99m88wSrxudMPnjW74vNGVqTI+vr4ZTw4mO5L3/0vfdRzkgzeMwRtHH0wPV0DMDCY74g2yK5PDN4ypweTIy1me+zefYZR43eiGzxtd8HmjG4MVD6ubodsVEHn/v/Rdx0HeL1m/2N4gu2E+d6Nv8xlGideNbpjP3TCfR1vW/y/0Zd8XAAAAuEcR5AAAAJBAkAMAAEACQQ4AAAAJBDkAAAAkEOQAAACQQJADAABAAkEOAAAACQQ5AAAAJBDkAAAAkECQAwAAQAJBDgAAAAkEOQAAACQQ5AAAAJBAkAMAAEACQQ4AAAAJBDkAAAAkEOQAAACQQJADAABAAkEOAAAACQQ5AAAAJBDkAAAAkECQAwAAQAJBDgAAAAkEOQAAACQQ5AAAAJBAkAMAAEACQQ4AAAAJBDkAAAAkEOQAAACQQJADAABAAkEOAAAACQQ5AAAAJBDkAAAAkECQAwAAQAJBDgAAAAkEOQAAACQQ5AAAAJBAkAMAAEACQQ4AAAAJBDkAAAAkEOQAAACQQJADAABAAkEOAAAACQQ5AAAAJBDkAAAAkECQAwAAQAJBDgAAAAkEOQAAACQQ5AAAAJBAkAMAAEACQQ4AAAAJBDkAAAAkEOQAAACQQJADAABAAkEOAAAACQQ5AAAAJKgmJjbWw8sdWGiG2VLXMe6D6TI3t64ZzwwmOzNZxsfXN+OpweTIy5nPVbWmjI1taMd9UNebyvz82nbcrb4tzzmqKtbPrm6Gvqyn7dv7URavz13w+twVn+u6kPV+lPd7RN91HOQzwxey6cHkiBt80Jtthq4/8A1eyAYvaKMvaz77wNeVfi3PeaaGH/gmB5Mjr1/vR1m8PnfD63M3fK7rSs77Ud7vEX3XaZBb0BklPvAxSizPjBLLM9x7Zf3++j0ii01OAAAAkECQAwAAQAJBDgAAAAkEOQAAACQQ5AAAAJBAkAMAAEACQQ4AAAAJBDkAAAAkEOQAAACQQJADAABAAkEOAAAACQQ5AAAAJBDkAAAAkECQAwAAQAJBDgAAAAkEOQAAACQQ5AAAAJBAkAMAAEACQQ4AAAAJBDkAAAAkEOQAAACQQJADAABAAkEOAAAACQQ5AAAAJBDkAAAAkECQAwAAQAJBDgAAAAmqiYmN9fDysqvrTWV+fm077lasd1hdqsr6B5bSVBkfX9+MJweTI2+mzM2ta8bTg0mWRV0vNP/ONkOMu1NVa8rY2IZ23Afej0ad12fYWX17P8p7X6DvehLkk8M35qnBJCyBwQfq1c3Qlw/WgzfmwRs0y2d6+MF6ZjDZEUHeFe9HXfD6DEuhX+9Hee8L9F0vgrxvHzSBey+vk90wnwHuXN9eJ7OeL9hnDgAAABIIcgAAAEggyAEAACCBIAcAAIAEghwAAAASCHIAAABIIMgBAAAggSAHAACABIIcAAAAEghyAAAASCDIAQAAIIEgBwAAgASCHAAAABIIcgAAAEggyAEAACCBIAcAAIAEghwAAAASCHIAAABIIMgBAAAggSAHAACABIIcAAAAEghyAAAASCDIAQAAIIEgBwAAgASCHAAAABIIcgAAAEggyAEAACCBIAcAAIAEghwAAAASCHIAAABIIMgBAAAggSAHAACABIIcAAAAEghyAAAASCDIAQAAIIEgBwAAgASCHAAAABIIcgAAAEggyAEAACCBIAcAAIAEghwAAAASCHIAAABIIMgBAAAggSAHAACABIIcAAAAEghyAAAASCDIAQAAIIEgBwAAgASCHAAAABIIcgAAAEggyAEAACCBIAcAAIAEghwAAAASCHIAAABIIMgBAAAggSAHAACABIIcAAAAElQTExvr4eVlV9ebyvz82nbcrckyPr6+GU8NJgHusabL3Ny6ZjwzmOxM314nzWeAO5fzOllVa8rY2IZ23KW8TqHvehLksSPA6uYX2w4BwD1bXS80/842Q4y71K/XSfMZ4M5lvU4KcvqmJ0EOAADc0wly+sYqegAAAEggyAEAACCBIAcAAIAEghwAAAASCHIAAABIIMgBAAAggSAHAACABIIcAAAAEghyAAAASCDIAQAAIIEgBwAAgASCHAAAABIIcgAAAEggyAEAACCBIAcAAIAEghwAAAASCHIAAABIIMgBAAAggSAHAACABIIcAAAAEghyAAAASCDIAQAAIIEgBwAAgASCHAAAABIIcgAAAEggyAEAACCBIAcAAIAE1cTExnp4uQMzZW5uXTOeHkwCAABsNVXGx9c348nBZEfqelOZn1/bjqFLHQf5QjPMNgt6jAEAAG5RVbED7+pm6HZHXkFOlo6DHAAA4J5FkJPFMeQAAACQQJADAABAAkEOAAAACQQ5AAAAJBDkAAAAkECQAwAAQAJBDgAAAAkEOQAAACQQ5AAAAJBAkAMAAEACQQ4AAAAJBDkAAAAkEOQAAACQQJADAABAAkEOAAAACQQ5AAAAJBDkAAAAkECQAwAAQAJBDgAAAAkEOQAAACQQ5AAAAJBAkAMAAEACQQ4AAAAJBDkAAAAkEOQAAACQQJADAABAAkEOAAAACarx8ZPr4WUAAIAemi5zc+ua8cxgEjpSVdUaQQ4AAPRWXS80/842Q4yhO1UzCHIAAADomGPIAQAAIIEgBwAAgASCHAAAABIIcgAAAEggyAEAACCBIAcAAIAEghwAAAASCHIAAABIIMgBAAAggSAHAACABIIcAAAAEghyAAAASCDIAQAAIIEgBwAAgASCHAAAABIIcgAAAEggyAEAAKBzpfz/tmuBBH+xip4AAAAASUVORK5CYII=;" vertex="1" parent="1">
          <mxGeometry x="126" y="238" width="996" height="979" as="geometry" />
        </mxCell>
      </root>
    </mxGraphModel>
  </diagram>
</mxfile>
